<svg width="672" height="765" viewBox="0 0 672 765" fill="none" xmlns="http://www.w3.org/2000/svg">
<g opacity="0.5">
<g filter="url(#filter0_b_1_11575)">
<path d="M606.299 0V687" stroke="#CEE1EA"/>
</g>
<g filter="url(#filter1_b_1_11575)">
<path d="M569.66 0V687" stroke="#CEE1EA"/>
</g>
<g filter="url(#filter2_b_1_11575)">
<path d="M533.018 0V687" stroke="#CEE1EA"/>
</g>
<g filter="url(#filter3_b_1_11575)">
<path d="M496.379 0L496.379 687" stroke="#CEE1EA"/>
</g>
<g filter="url(#filter4_b_1_11575)">
<path d="M459.739 0L459.739 687" stroke="#CEE1EA"/>
</g>
<g filter="url(#filter5_b_1_11575)">
<path d="M423.1 0L423.1 687" stroke="#CEE1EA"/>
</g>
<g filter="url(#filter6_b_1_11575)">
<path d="M386.458 0L386.458 687" stroke="#CEE1EA"/>
</g>
<g filter="url(#filter7_b_1_11575)">
<path d="M349.819 0L349.819 687" stroke="#CEE1EA"/>
</g>
<g filter="url(#filter8_b_1_11575)">
<path d="M313.18 0L313.18 687" stroke="#CEE1EA"/>
</g>
<g filter="url(#filter9_b_1_11575)">
<path d="M276.538 0L276.538 687" stroke="#CEE1EA"/>
</g>
<g filter="url(#filter10_b_1_11575)">
<path d="M239.899 0L239.899 687" stroke="#CEE1EA"/>
</g>
<g filter="url(#filter11_b_1_11575)">
<path d="M203.259 0L203.259 687" stroke="#CEE1EA"/>
</g>
<g filter="url(#filter12_b_1_11575)">
<path d="M166.62 0L166.62 687" stroke="#CEE1EA"/>
</g>
<g filter="url(#filter13_b_1_11575)">
<path d="M129.978 0L129.978 687" stroke="#CEE1EA"/>
</g>
<g filter="url(#filter14_b_1_11575)">
<path d="M93.3389 0L93.3389 687" stroke="#CEE1EA"/>
</g>
<g filter="url(#filter15_b_1_11575)">
<path d="M56.6994 0L56.6994 687" stroke="#CEE1EA"/>
</g>
<g filter="url(#filter16_b_1_11575)">
<path d="M0.000366211 69L664 69" stroke="#CEE1EA"/>
</g>
<g filter="url(#filter17_b_1_11575)">
<path d="M0.000366211 105L664 105" stroke="#CEE1EA"/>
</g>
<g filter="url(#filter18_b_1_11575)">
<path d="M0.000366211 142L664 142" stroke="#CEE1EA"/>
</g>
<g filter="url(#filter19_b_1_11575)">
<path d="M0.000366211 179L664 179" stroke="#CEE1EA"/>
</g>
<g filter="url(#filter20_b_1_11575)">
<path d="M0.000366211 215L664 215" stroke="#CEE1EA"/>
</g>
<g filter="url(#filter21_b_1_11575)">
<path d="M0.000366211 252L664 252" stroke="#CEE1EA"/>
</g>
<g filter="url(#filter22_b_1_11575)">
<path d="M0.000366211 289L664 289" stroke="#CEE1EA"/>
</g>
<g filter="url(#filter23_b_1_11575)">
<path d="M0.000366211 325L664 325" stroke="#CEE1EA"/>
</g>
<g filter="url(#filter24_b_1_11575)">
<path d="M0.000366211 362L664 362" stroke="#CEE1EA"/>
</g>
<g filter="url(#filter25_b_1_11575)">
<path d="M0.000366211 398L664 398" stroke="#CEE1EA"/>
</g>
<g filter="url(#filter26_b_1_11575)">
<path d="M0.000366211 435L664 435" stroke="#CEE1EA"/>
</g>
<g filter="url(#filter27_b_1_11575)">
<path d="M0.000366211 472L664 472" stroke="#CEE1EA"/>
</g>
<g filter="url(#filter28_b_1_11575)">
<path d="M0.000366211 508L664 508" stroke="#CEE1EA"/>
</g>
<g filter="url(#filter29_b_1_11575)">
<path d="M0.000366211 545L664 545" stroke="#CEE1EA"/>
</g>
<g filter="url(#filter30_b_1_11575)">
<path d="M0.000366211 582L664 582" stroke="#CEE1EA"/>
</g>
<g filter="url(#filter31_b_1_11575)">
<path d="M0.000366211 618L664 618" stroke="#CEE1EA"/>
</g>
</g>
<g filter="url(#filter32_d_1_11575)">
<path d="M130.922 300.578C132.923 305.814 148.302 304.8 165.273 298.314C182.244 291.828 194.379 282.326 192.378 277.09C190.377 271.854 114.442 78.88 114.442 78.88L52.9855 102.369C52.9855 102.369 129.822 297.7 130.922 300.578Z" fill="url(#paint0_linear_1_11575)"/>
<path d="M53.5087 102.543C53.9371 103.664 55.1114 104.526 57.0473 105.051C58.9722 105.574 61.5602 105.737 64.6445 105.534C70.8077 105.127 78.8527 103.265 87.3096 100.033C95.7665 96.8008 103.003 92.8225 107.866 89.0145C110.3 87.1088 112.119 85.2612 113.205 83.5879C114.296 81.9051 114.597 80.4801 114.169 79.3592C113.74 78.2383 112.566 77.3769 110.63 76.8513C108.705 76.3287 106.117 76.1656 103.033 76.3689C96.8695 76.7751 88.8245 78.6373 80.3676 81.8695C71.9107 85.1018 64.6744 89.0801 59.8114 92.888C57.3777 94.7937 55.5582 96.6414 54.4726 98.3146C53.3808 99.9974 53.0803 101.422 53.5087 102.543Z" fill="url(#paint1_linear_1_11575)" stroke="url(#paint2_linear_1_11575)" stroke-width="0.852615"/>
</g>
<g filter="url(#filter33_d_1_11575)">
<path d="M203.912 416.925C236.945 472.968 334.476 485.317 411.209 436.864C474.601 396.835 519.503 310.715 489.802 254.858C452.869 192.199 456.074 197.638 456.074 197.638C456.074 197.638 440.686 312.335 379.984 357.141C316.698 403.854 173.004 364.489 173.004 364.489C173.004 364.489 199.67 409.728 203.912 416.925Z" fill="url(#paint3_linear_1_11575)"/>
<path d="M255.247 365.479C278.609 405.113 72.1584 291.819 242.881 180.447C413.603 69.0755 450.844 303.592 427.482 263.958C404.12 224.323 346.625 214.92 299.064 242.954C251.503 270.988 231.885 325.845 255.247 365.479Z" fill="url(#paint4_linear_1_11575)"/>
<mask id="path-37-inside-1_1_11575" fill="white">
<path fill-rule="evenodd" clip-rule="evenodd" d="M382.639 395.686C304.251 441.891 209.562 426.511 171.144 361.334C132.727 296.158 165.129 205.866 243.517 159.661C321.905 113.456 416.595 128.836 455.012 194.012C493.429 259.189 461.027 349.481 382.639 395.686ZM347.859 336.68C301.178 364.195 246.081 357.226 224.796 321.115C203.51 285.004 224.097 233.424 270.778 205.909C317.458 178.394 372.555 185.362 393.841 221.474C415.126 257.585 394.539 309.164 347.859 336.68Z"/>
</mask>
<path fill-rule="evenodd" clip-rule="evenodd" d="M382.639 395.686C304.251 441.891 209.562 426.511 171.144 361.334C132.727 296.158 165.129 205.866 243.517 159.661C321.905 113.456 416.595 128.836 455.012 194.012C493.429 259.189 461.027 349.481 382.639 395.686ZM347.859 336.68C301.178 364.195 246.081 357.226 224.796 321.115C203.51 285.004 224.097 233.424 270.778 205.909C317.458 178.394 372.555 185.362 393.841 221.474C415.126 257.585 394.539 309.164 347.859 336.68Z" fill="url(#paint5_linear_1_11575)"/>
<path d="M172.739 360.394C210.482 424.427 303.904 439.946 381.699 394.091L383.579 397.281C304.599 443.835 208.641 428.595 169.55 362.274L172.739 360.394ZM244.457 161.256C166.662 207.111 134.996 296.362 172.739 360.394L169.55 362.274C130.458 295.954 163.597 204.62 242.577 158.066L244.457 161.256ZM453.417 194.952C415.674 130.92 322.253 115.4 244.457 161.256L242.577 158.066C321.558 111.512 417.515 126.752 456.607 193.072L453.417 194.952ZM381.699 394.091C459.494 348.236 491.161 258.985 453.417 194.952L456.607 193.072C495.698 259.392 462.56 350.727 383.579 397.281L381.699 394.091ZM226.391 320.175C246.947 355.049 300.714 362.32 346.919 335.085L348.799 338.274C301.642 366.07 245.216 359.404 223.201 322.055L226.391 320.175ZM271.718 207.504C225.513 234.739 205.835 285.301 226.391 320.175L223.201 322.055C201.186 284.706 222.682 232.11 269.838 204.314L271.718 207.504ZM392.246 222.414C371.69 187.54 317.922 180.269 271.718 207.504L269.838 204.314C316.994 176.519 373.421 183.185 395.435 220.534L392.246 222.414ZM346.919 335.085C393.123 307.85 412.802 257.288 392.246 222.414L395.435 220.534C417.45 257.882 395.955 310.479 348.799 338.274L346.919 335.085Z" fill="url(#paint6_linear_1_11575)" mask="url(#path-37-inside-1_1_11575)"/>
</g>
<g filter="url(#filter34_d_1_11575)">
<g opacity="0.9" filter="url(#filter35_b_1_11575)">
<path d="M245.957 386.686L141.854 471.942L202.82 584.661L289.087 496.736L245.957 386.686Z" fill="url(#paint7_linear_1_11575)"/>
</g>
<path d="M142.555 472.033L65.9644 457.824L121.009 561.22L202.82 584.661L142.555 472.033Z" fill="url(#paint8_linear_1_11575)"/>
<g opacity="0.9" filter="url(#filter36_b_1_11575)">
<path d="M159.835 385.502L65.9644 457.825L142.555 472.033L246.353 386.38L159.835 385.502Z" fill="url(#paint9_linear_1_11575)"/>
<path d="M243.809 387.28L160.146 386.431L68.1714 457.293L142.299 471.044L243.809 387.28Z" stroke="white" stroke-width="1.85119"/>
</g>
</g>
<path d="M598.126 263.849C593.197 270.071 584.161 271.127 577.931 266.208L424.475 145.06C418.167 140.08 417.161 130.898 422.242 124.67L459.501 79L632.99 219.837L598.126 263.849Z" fill="url(#paint10_linear_1_11575)" stroke="white" stroke-width="0.719444"/>
<path d="M652.842 174.731C655.103 168.856 653.282 162.194 648.347 158.285L515.204 52.8172C510.27 48.9085 503.367 48.661 498.166 52.2064L462.029 76.837C458.019 79.5701 457.809 85.4081 461.613 88.4213L625.955 218.603C629.759 221.616 635.394 220.076 637.137 215.547L652.842 174.731Z" fill="url(#paint11_linear_1_11575)" stroke="white" stroke-width="0.719444"/>
<g filter="url(#filter37_b_1_11575)">
<ellipse cx="88.6628" cy="81.5901" rx="88.6628" ry="81.5901" transform="matrix(-0.972051 0.23477 0.23477 0.972051 588.69 333.487)" fill="url(#paint12_linear_1_11575)" fill-opacity="0.7"/>
<path d="M436.061 454.286C446.551 497.719 493.351 523.765 540.673 512.336C587.995 500.907 617.749 456.371 607.259 412.938C596.769 369.505 549.968 343.459 502.646 354.888C455.324 366.317 425.571 410.853 436.061 454.286Z" stroke="#FFFAFA" stroke-width="1.20513"/>
</g>
<g filter="url(#filter38_b_1_11575)">
<ellipse cx="88.6628" cy="81.5901" rx="88.6628" ry="81.5901" transform="matrix(-0.972051 0.23477 0.23477 0.972051 583.871 321.436)" fill="url(#paint13_linear_1_11575)" fill-opacity="0.7"/>
<path d="M431.242 442.235C441.732 485.668 488.533 511.714 535.855 500.285C583.177 488.855 612.931 444.32 602.441 400.887C591.951 357.454 545.15 331.407 497.828 342.837C450.506 354.266 420.752 398.801 431.242 442.235Z" stroke="#FFFAFA" stroke-width="1.20513"/>
</g>
<defs>
<filter id="filter0_b_1_11575" x="595.799" y="-10" width="21" height="707" filterUnits="userSpaceOnUse" color-interpolation-filters="sRGB">
<feFlood flood-opacity="0" result="BackgroundImageFix"/>
<feGaussianBlur in="BackgroundImageFix" stdDeviation="5"/>
<feComposite in2="SourceAlpha" operator="in" result="effect1_backgroundBlur_1_11575"/>
<feBlend mode="normal" in="SourceGraphic" in2="effect1_backgroundBlur_1_11575" result="shape"/>
</filter>
<filter id="filter1_b_1_11575" x="559.16" y="-10" width="21" height="707" filterUnits="userSpaceOnUse" color-interpolation-filters="sRGB">
<feFlood flood-opacity="0" result="BackgroundImageFix"/>
<feGaussianBlur in="BackgroundImageFix" stdDeviation="5"/>
<feComposite in2="SourceAlpha" operator="in" result="effect1_backgroundBlur_1_11575"/>
<feBlend mode="normal" in="SourceGraphic" in2="effect1_backgroundBlur_1_11575" result="shape"/>
</filter>
<filter id="filter2_b_1_11575" x="522.518" y="-10" width="21" height="707" filterUnits="userSpaceOnUse" color-interpolation-filters="sRGB">
<feFlood flood-opacity="0" result="BackgroundImageFix"/>
<feGaussianBlur in="BackgroundImageFix" stdDeviation="5"/>
<feComposite in2="SourceAlpha" operator="in" result="effect1_backgroundBlur_1_11575"/>
<feBlend mode="normal" in="SourceGraphic" in2="effect1_backgroundBlur_1_11575" result="shape"/>
</filter>
<filter id="filter3_b_1_11575" x="485.879" y="-10" width="21" height="707" filterUnits="userSpaceOnUse" color-interpolation-filters="sRGB">
<feFlood flood-opacity="0" result="BackgroundImageFix"/>
<feGaussianBlur in="BackgroundImageFix" stdDeviation="5"/>
<feComposite in2="SourceAlpha" operator="in" result="effect1_backgroundBlur_1_11575"/>
<feBlend mode="normal" in="SourceGraphic" in2="effect1_backgroundBlur_1_11575" result="shape"/>
</filter>
<filter id="filter4_b_1_11575" x="449.239" y="-10" width="21" height="707" filterUnits="userSpaceOnUse" color-interpolation-filters="sRGB">
<feFlood flood-opacity="0" result="BackgroundImageFix"/>
<feGaussianBlur in="BackgroundImageFix" stdDeviation="5"/>
<feComposite in2="SourceAlpha" operator="in" result="effect1_backgroundBlur_1_11575"/>
<feBlend mode="normal" in="SourceGraphic" in2="effect1_backgroundBlur_1_11575" result="shape"/>
</filter>
<filter id="filter5_b_1_11575" x="412.6" y="-10" width="21" height="707" filterUnits="userSpaceOnUse" color-interpolation-filters="sRGB">
<feFlood flood-opacity="0" result="BackgroundImageFix"/>
<feGaussianBlur in="BackgroundImageFix" stdDeviation="5"/>
<feComposite in2="SourceAlpha" operator="in" result="effect1_backgroundBlur_1_11575"/>
<feBlend mode="normal" in="SourceGraphic" in2="effect1_backgroundBlur_1_11575" result="shape"/>
</filter>
<filter id="filter6_b_1_11575" x="375.958" y="-10" width="21" height="707" filterUnits="userSpaceOnUse" color-interpolation-filters="sRGB">
<feFlood flood-opacity="0" result="BackgroundImageFix"/>
<feGaussianBlur in="BackgroundImageFix" stdDeviation="5"/>
<feComposite in2="SourceAlpha" operator="in" result="effect1_backgroundBlur_1_11575"/>
<feBlend mode="normal" in="SourceGraphic" in2="effect1_backgroundBlur_1_11575" result="shape"/>
</filter>
<filter id="filter7_b_1_11575" x="339.319" y="-10" width="21" height="707" filterUnits="userSpaceOnUse" color-interpolation-filters="sRGB">
<feFlood flood-opacity="0" result="BackgroundImageFix"/>
<feGaussianBlur in="BackgroundImageFix" stdDeviation="5"/>
<feComposite in2="SourceAlpha" operator="in" result="effect1_backgroundBlur_1_11575"/>
<feBlend mode="normal" in="SourceGraphic" in2="effect1_backgroundBlur_1_11575" result="shape"/>
</filter>
<filter id="filter8_b_1_11575" x="302.68" y="-10" width="21" height="707" filterUnits="userSpaceOnUse" color-interpolation-filters="sRGB">
<feFlood flood-opacity="0" result="BackgroundImageFix"/>
<feGaussianBlur in="BackgroundImageFix" stdDeviation="5"/>
<feComposite in2="SourceAlpha" operator="in" result="effect1_backgroundBlur_1_11575"/>
<feBlend mode="normal" in="SourceGraphic" in2="effect1_backgroundBlur_1_11575" result="shape"/>
</filter>
<filter id="filter9_b_1_11575" x="266.038" y="-10" width="21" height="707" filterUnits="userSpaceOnUse" color-interpolation-filters="sRGB">
<feFlood flood-opacity="0" result="BackgroundImageFix"/>
<feGaussianBlur in="BackgroundImageFix" stdDeviation="5"/>
<feComposite in2="SourceAlpha" operator="in" result="effect1_backgroundBlur_1_11575"/>
<feBlend mode="normal" in="SourceGraphic" in2="effect1_backgroundBlur_1_11575" result="shape"/>
</filter>
<filter id="filter10_b_1_11575" x="229.399" y="-10" width="21" height="707" filterUnits="userSpaceOnUse" color-interpolation-filters="sRGB">
<feFlood flood-opacity="0" result="BackgroundImageFix"/>
<feGaussianBlur in="BackgroundImageFix" stdDeviation="5"/>
<feComposite in2="SourceAlpha" operator="in" result="effect1_backgroundBlur_1_11575"/>
<feBlend mode="normal" in="SourceGraphic" in2="effect1_backgroundBlur_1_11575" result="shape"/>
</filter>
<filter id="filter11_b_1_11575" x="192.759" y="-10" width="21" height="707" filterUnits="userSpaceOnUse" color-interpolation-filters="sRGB">
<feFlood flood-opacity="0" result="BackgroundImageFix"/>
<feGaussianBlur in="BackgroundImageFix" stdDeviation="5"/>
<feComposite in2="SourceAlpha" operator="in" result="effect1_backgroundBlur_1_11575"/>
<feBlend mode="normal" in="SourceGraphic" in2="effect1_backgroundBlur_1_11575" result="shape"/>
</filter>
<filter id="filter12_b_1_11575" x="156.12" y="-10" width="21" height="707" filterUnits="userSpaceOnUse" color-interpolation-filters="sRGB">
<feFlood flood-opacity="0" result="BackgroundImageFix"/>
<feGaussianBlur in="BackgroundImageFix" stdDeviation="5"/>
<feComposite in2="SourceAlpha" operator="in" result="effect1_backgroundBlur_1_11575"/>
<feBlend mode="normal" in="SourceGraphic" in2="effect1_backgroundBlur_1_11575" result="shape"/>
</filter>
<filter id="filter13_b_1_11575" x="119.478" y="-10" width="21" height="707" filterUnits="userSpaceOnUse" color-interpolation-filters="sRGB">
<feFlood flood-opacity="0" result="BackgroundImageFix"/>
<feGaussianBlur in="BackgroundImageFix" stdDeviation="5"/>
<feComposite in2="SourceAlpha" operator="in" result="effect1_backgroundBlur_1_11575"/>
<feBlend mode="normal" in="SourceGraphic" in2="effect1_backgroundBlur_1_11575" result="shape"/>
</filter>
<filter id="filter14_b_1_11575" x="82.8389" y="-10" width="21" height="707" filterUnits="userSpaceOnUse" color-interpolation-filters="sRGB">
<feFlood flood-opacity="0" result="BackgroundImageFix"/>
<feGaussianBlur in="BackgroundImageFix" stdDeviation="5"/>
<feComposite in2="SourceAlpha" operator="in" result="effect1_backgroundBlur_1_11575"/>
<feBlend mode="normal" in="SourceGraphic" in2="effect1_backgroundBlur_1_11575" result="shape"/>
</filter>
<filter id="filter15_b_1_11575" x="46.1994" y="-10" width="21" height="707" filterUnits="userSpaceOnUse" color-interpolation-filters="sRGB">
<feFlood flood-opacity="0" result="BackgroundImageFix"/>
<feGaussianBlur in="BackgroundImageFix" stdDeviation="5"/>
<feComposite in2="SourceAlpha" operator="in" result="effect1_backgroundBlur_1_11575"/>
<feBlend mode="normal" in="SourceGraphic" in2="effect1_backgroundBlur_1_11575" result="shape"/>
</filter>
<filter id="filter16_b_1_11575" x="-9.99963" y="58.5" width="684" height="21" filterUnits="userSpaceOnUse" color-interpolation-filters="sRGB">
<feFlood flood-opacity="0" result="BackgroundImageFix"/>
<feGaussianBlur in="BackgroundImageFix" stdDeviation="5"/>
<feComposite in2="SourceAlpha" operator="in" result="effect1_backgroundBlur_1_11575"/>
<feBlend mode="normal" in="SourceGraphic" in2="effect1_backgroundBlur_1_11575" result="shape"/>
</filter>
<filter id="filter17_b_1_11575" x="-9.99963" y="94.5" width="684" height="21" filterUnits="userSpaceOnUse" color-interpolation-filters="sRGB">
<feFlood flood-opacity="0" result="BackgroundImageFix"/>
<feGaussianBlur in="BackgroundImageFix" stdDeviation="5"/>
<feComposite in2="SourceAlpha" operator="in" result="effect1_backgroundBlur_1_11575"/>
<feBlend mode="normal" in="SourceGraphic" in2="effect1_backgroundBlur_1_11575" result="shape"/>
</filter>
<filter id="filter18_b_1_11575" x="-9.99963" y="131.5" width="684" height="21" filterUnits="userSpaceOnUse" color-interpolation-filters="sRGB">
<feFlood flood-opacity="0" result="BackgroundImageFix"/>
<feGaussianBlur in="BackgroundImageFix" stdDeviation="5"/>
<feComposite in2="SourceAlpha" operator="in" result="effect1_backgroundBlur_1_11575"/>
<feBlend mode="normal" in="SourceGraphic" in2="effect1_backgroundBlur_1_11575" result="shape"/>
</filter>
<filter id="filter19_b_1_11575" x="-9.99963" y="168.5" width="684" height="21" filterUnits="userSpaceOnUse" color-interpolation-filters="sRGB">
<feFlood flood-opacity="0" result="BackgroundImageFix"/>
<feGaussianBlur in="BackgroundImageFix" stdDeviation="5"/>
<feComposite in2="SourceAlpha" operator="in" result="effect1_backgroundBlur_1_11575"/>
<feBlend mode="normal" in="SourceGraphic" in2="effect1_backgroundBlur_1_11575" result="shape"/>
</filter>
<filter id="filter20_b_1_11575" x="-9.99963" y="204.5" width="684" height="21" filterUnits="userSpaceOnUse" color-interpolation-filters="sRGB">
<feFlood flood-opacity="0" result="BackgroundImageFix"/>
<feGaussianBlur in="BackgroundImageFix" stdDeviation="5"/>
<feComposite in2="SourceAlpha" operator="in" result="effect1_backgroundBlur_1_11575"/>
<feBlend mode="normal" in="SourceGraphic" in2="effect1_backgroundBlur_1_11575" result="shape"/>
</filter>
<filter id="filter21_b_1_11575" x="-9.99963" y="241.5" width="684" height="21" filterUnits="userSpaceOnUse" color-interpolation-filters="sRGB">
<feFlood flood-opacity="0" result="BackgroundImageFix"/>
<feGaussianBlur in="BackgroundImageFix" stdDeviation="5"/>
<feComposite in2="SourceAlpha" operator="in" result="effect1_backgroundBlur_1_11575"/>
<feBlend mode="normal" in="SourceGraphic" in2="effect1_backgroundBlur_1_11575" result="shape"/>
</filter>
<filter id="filter22_b_1_11575" x="-9.99963" y="278.5" width="684" height="21" filterUnits="userSpaceOnUse" color-interpolation-filters="sRGB">
<feFlood flood-opacity="0" result="BackgroundImageFix"/>
<feGaussianBlur in="BackgroundImageFix" stdDeviation="5"/>
<feComposite in2="SourceAlpha" operator="in" result="effect1_backgroundBlur_1_11575"/>
<feBlend mode="normal" in="SourceGraphic" in2="effect1_backgroundBlur_1_11575" result="shape"/>
</filter>
<filter id="filter23_b_1_11575" x="-9.99963" y="314.5" width="684" height="21" filterUnits="userSpaceOnUse" color-interpolation-filters="sRGB">
<feFlood flood-opacity="0" result="BackgroundImageFix"/>
<feGaussianBlur in="BackgroundImageFix" stdDeviation="5"/>
<feComposite in2="SourceAlpha" operator="in" result="effect1_backgroundBlur_1_11575"/>
<feBlend mode="normal" in="SourceGraphic" in2="effect1_backgroundBlur_1_11575" result="shape"/>
</filter>
<filter id="filter24_b_1_11575" x="-9.99963" y="351.5" width="684" height="21" filterUnits="userSpaceOnUse" color-interpolation-filters="sRGB">
<feFlood flood-opacity="0" result="BackgroundImageFix"/>
<feGaussianBlur in="BackgroundImageFix" stdDeviation="5"/>
<feComposite in2="SourceAlpha" operator="in" result="effect1_backgroundBlur_1_11575"/>
<feBlend mode="normal" in="SourceGraphic" in2="effect1_backgroundBlur_1_11575" result="shape"/>
</filter>
<filter id="filter25_b_1_11575" x="-9.99963" y="387.5" width="684" height="21" filterUnits="userSpaceOnUse" color-interpolation-filters="sRGB">
<feFlood flood-opacity="0" result="BackgroundImageFix"/>
<feGaussianBlur in="BackgroundImageFix" stdDeviation="5"/>
<feComposite in2="SourceAlpha" operator="in" result="effect1_backgroundBlur_1_11575"/>
<feBlend mode="normal" in="SourceGraphic" in2="effect1_backgroundBlur_1_11575" result="shape"/>
</filter>
<filter id="filter26_b_1_11575" x="-9.99963" y="424.5" width="684" height="21" filterUnits="userSpaceOnUse" color-interpolation-filters="sRGB">
<feFlood flood-opacity="0" result="BackgroundImageFix"/>
<feGaussianBlur in="BackgroundImageFix" stdDeviation="5"/>
<feComposite in2="SourceAlpha" operator="in" result="effect1_backgroundBlur_1_11575"/>
<feBlend mode="normal" in="SourceGraphic" in2="effect1_backgroundBlur_1_11575" result="shape"/>
</filter>
<filter id="filter27_b_1_11575" x="-9.99963" y="461.5" width="684" height="21" filterUnits="userSpaceOnUse" color-interpolation-filters="sRGB">
<feFlood flood-opacity="0" result="BackgroundImageFix"/>
<feGaussianBlur in="BackgroundImageFix" stdDeviation="5"/>
<feComposite in2="SourceAlpha" operator="in" result="effect1_backgroundBlur_1_11575"/>
<feBlend mode="normal" in="SourceGraphic" in2="effect1_backgroundBlur_1_11575" result="shape"/>
</filter>
<filter id="filter28_b_1_11575" x="-9.99963" y="497.5" width="684" height="21" filterUnits="userSpaceOnUse" color-interpolation-filters="sRGB">
<feFlood flood-opacity="0" result="BackgroundImageFix"/>
<feGaussianBlur in="BackgroundImageFix" stdDeviation="5"/>
<feComposite in2="SourceAlpha" operator="in" result="effect1_backgroundBlur_1_11575"/>
<feBlend mode="normal" in="SourceGraphic" in2="effect1_backgroundBlur_1_11575" result="shape"/>
</filter>
<filter id="filter29_b_1_11575" x="-9.99963" y="534.5" width="684" height="21" filterUnits="userSpaceOnUse" color-interpolation-filters="sRGB">
<feFlood flood-opacity="0" result="BackgroundImageFix"/>
<feGaussianBlur in="BackgroundImageFix" stdDeviation="5"/>
<feComposite in2="SourceAlpha" operator="in" result="effect1_backgroundBlur_1_11575"/>
<feBlend mode="normal" in="SourceGraphic" in2="effect1_backgroundBlur_1_11575" result="shape"/>
</filter>
<filter id="filter30_b_1_11575" x="-9.99963" y="571.5" width="684" height="21" filterUnits="userSpaceOnUse" color-interpolation-filters="sRGB">
<feFlood flood-opacity="0" result="BackgroundImageFix"/>
<feGaussianBlur in="BackgroundImageFix" stdDeviation="5"/>
<feComposite in2="SourceAlpha" operator="in" result="effect1_backgroundBlur_1_11575"/>
<feBlend mode="normal" in="SourceGraphic" in2="effect1_backgroundBlur_1_11575" result="shape"/>
</filter>
<filter id="filter31_b_1_11575" x="-9.99963" y="607.5" width="684" height="21" filterUnits="userSpaceOnUse" color-interpolation-filters="sRGB">
<feFlood flood-opacity="0" result="BackgroundImageFix"/>
<feGaussianBlur in="BackgroundImageFix" stdDeviation="5"/>
<feComposite in2="SourceAlpha" operator="in" result="effect1_backgroundBlur_1_11575"/>
<feBlend mode="normal" in="SourceGraphic" in2="effect1_backgroundBlur_1_11575" result="shape"/>
</filter>
<filter id="filter32_d_1_11575" x="20.6542" y="75.8579" width="204.18" height="320.185" filterUnits="userSpaceOnUse" color-interpolation-filters="sRGB">
<feFlood flood-opacity="0" result="BackgroundImageFix"/>
<feColorMatrix in="SourceAlpha" type="matrix" values="0 0 0 0 0 0 0 0 0 0 0 0 0 0 0 0 0 0 127 0" result="hardAlpha"/>
<feOffset dy="59.8751"/>
<feGaussianBlur stdDeviation="16.1202"/>
<feComposite in2="hardAlpha" operator="out"/>
<feColorMatrix type="matrix" values="0 0 0 0 0.337255 0 0 0 0 0.717647 0 0 0 0 0.420941 0 0 0 0.15 0"/>
<feBlend mode="normal" in2="BackgroundImageFix" result="effect1_dropShadow_1_11575"/>
<feBlend mode="normal" in="SourceGraphic" in2="effect1_dropShadow_1_11575" result="shape"/>
</filter>
<filter id="filter33_d_1_11575" x="84.9796" y="133.003" width="484.192" height="534.005" filterUnits="userSpaceOnUse" color-interpolation-filters="sRGB">
<feFlood flood-opacity="0" result="BackgroundImageFix"/>
<feColorMatrix in="SourceAlpha" type="matrix" values="0 0 0 0 0 0 0 0 0 0 0 0 0 0 0 0 0 0 127 0" result="hardAlpha"/>
<feOffset dy="130"/>
<feGaussianBlur stdDeviation="35"/>
<feComposite in2="hardAlpha" operator="out"/>
<feColorMatrix type="matrix" values="0 0 0 0 0.388235 0 0 0 0 0.337255 0 0 0 0 0.717647 0 0 0 0.1 0"/>
<feBlend mode="normal" in2="BackgroundImageFix" result="effect1_dropShadow_1_11575"/>
<feBlend mode="normal" in="SourceGraphic" in2="effect1_dropShadow_1_11575" result="shape"/>
</filter>
<filter id="filter34_d_1_11575" x="15.9644" y="385.501" width="323.123" height="379.16" filterUnits="userSpaceOnUse" color-interpolation-filters="sRGB">
<feFlood flood-opacity="0" result="BackgroundImageFix"/>
<feColorMatrix in="SourceAlpha" type="matrix" values="0 0 0 0 0 0 0 0 0 0 0 0 0 0 0 0 0 0 127 0" result="hardAlpha"/>
<feOffset dy="130"/>
<feGaussianBlur stdDeviation="25"/>
<feComposite in2="hardAlpha" operator="out"/>
<feColorMatrix type="matrix" values="0 0 0 0 0.436157 0 0 0 0 0.337255 0 0 0 0 0.717647 0 0 0 0.05 0"/>
<feBlend mode="normal" in2="BackgroundImageFix" result="effect1_dropShadow_1_11575"/>
<feBlend mode="normal" in="SourceGraphic" in2="effect1_dropShadow_1_11575" result="shape"/>
</filter>
<filter id="filter35_b_1_11575" x="137.854" y="382.686" width="155.234" height="205.976" filterUnits="userSpaceOnUse" color-interpolation-filters="sRGB">
<feFlood flood-opacity="0" result="BackgroundImageFix"/>
<feGaussianBlur in="BackgroundImageFix" stdDeviation="2"/>
<feComposite in2="SourceAlpha" operator="in" result="effect1_backgroundBlur_1_11575"/>
<feBlend mode="normal" in="SourceGraphic" in2="effect1_backgroundBlur_1_11575" result="shape"/>
</filter>
<filter id="filter36_b_1_11575" x="61.9644" y="381.501" width="188.389" height="94.5312" filterUnits="userSpaceOnUse" color-interpolation-filters="sRGB">
<feFlood flood-opacity="0" result="BackgroundImageFix"/>
<feGaussianBlur in="BackgroundImageFix" stdDeviation="2"/>
<feComposite in2="SourceAlpha" operator="in" result="effect1_backgroundBlur_1_11575"/>
<feBlend mode="normal" in="SourceGraphic" in2="effect1_backgroundBlur_1_11575" result="shape"/>
</filter>
<filter id="filter37_b_1_11575" x="409.25" y="327.493" width="224.819" height="212.237" filterUnits="userSpaceOnUse" color-interpolation-filters="sRGB">
<feFlood flood-opacity="0" result="BackgroundImageFix"/>
<feGaussianBlur in="BackgroundImageFix" stdDeviation="12.0513"/>
<feComposite in2="SourceAlpha" operator="in" result="effect1_backgroundBlur_1_11575"/>
<feBlend mode="normal" in="SourceGraphic" in2="effect1_backgroundBlur_1_11575" result="shape"/>
</filter>
<filter id="filter38_b_1_11575" x="404.432" y="315.442" width="224.819" height="212.237" filterUnits="userSpaceOnUse" color-interpolation-filters="sRGB">
<feFlood flood-opacity="0" result="BackgroundImageFix"/>
<feGaussianBlur in="BackgroundImageFix" stdDeviation="12.0513"/>
<feComposite in2="SourceAlpha" operator="in" result="effect1_backgroundBlur_1_11575"/>
<feBlend mode="normal" in="SourceGraphic" in2="effect1_backgroundBlur_1_11575" result="shape"/>
</filter>
<linearGradient id="paint0_linear_1_11575" x1="72.9929" y1="135.28" x2="119.021" y2="115.956" gradientUnits="userSpaceOnUse">
<stop stop-color="#278C7E"/>
<stop offset="1" stop-color="#7CEBCA"/>
</linearGradient>
<linearGradient id="paint1_linear_1_11575" x1="-7.19249" y1="131.615" x2="60.0998" y2="166.919" gradientUnits="userSpaceOnUse">
<stop stop-color="#FFE895"/>
<stop offset="1" stop-color="#A5FF96"/>
</linearGradient>
<linearGradient id="paint2_linear_1_11575" x1="72.6197" y1="84.3744" x2="77.427" y2="99.9535" gradientUnits="userSpaceOnUse">
<stop stop-color="#3BBA7F"/>
<stop offset="1" stop-color="white"/>
</linearGradient>
<linearGradient id="paint3_linear_1_11575" x1="483.494" y1="306.458" x2="247.475" y2="442.372" gradientUnits="userSpaceOnUse">
<stop stop-color="#A96389"/>
<stop offset="1" stop-color="#BD92EA"/>
</linearGradient>
<linearGradient id="paint4_linear_1_11575" x1="249.84" y1="176.016" x2="337.564" y2="324.843" gradientUnits="userSpaceOnUse">
<stop stop-color="#5049B8"/>
<stop offset="1" stop-color="#846CB2"/>
</linearGradient>
<linearGradient id="paint5_linear_1_11575" x1="179.199" y1="183.605" x2="456.137" y2="384.667" gradientUnits="userSpaceOnUse">
<stop stop-color="#6684F9"/>
<stop offset="0.504278" stop-color="#E3A2D8"/>
<stop offset="1" stop-color="#FFB989"/>
</linearGradient>
<linearGradient id="paint6_linear_1_11575" x1="208.433" y1="180.341" x2="284.311" y2="383.807" gradientUnits="userSpaceOnUse">
<stop stop-color="#8572FF"/>
<stop offset="1" stop-color="white"/>
</linearGradient>
<linearGradient id="paint7_linear_1_11575" x1="232.429" y1="554.275" x2="193.846" y2="461.651" gradientUnits="userSpaceOnUse">
<stop stop-color="#FFB7A0"/>
<stop offset="1" stop-color="#F6DFA4"/>
</linearGradient>
<linearGradient id="paint8_linear_1_11575" x1="150.298" y1="591.043" x2="113.582" y2="436.018" gradientUnits="userSpaceOnUse">
<stop stop-color="#FF68B1"/>
<stop offset="1" stop-color="#FFCF87"/>
</linearGradient>
<linearGradient id="paint9_linear_1_11575" x1="-128.906" y1="607.963" x2="154.575" y2="404.071" gradientUnits="userSpaceOnUse">
<stop stop-color="#FE9535"/>
<stop offset="1" stop-color="#FFF9BE"/>
</linearGradient>
<linearGradient id="paint10_linear_1_11575" x1="547.546" y1="149.476" x2="488.601" y2="211.964" gradientUnits="userSpaceOnUse">
<stop stop-color="#FFBC6C"/>
<stop offset="1" stop-color="#FFD0D3"/>
</linearGradient>
<linearGradient id="paint11_linear_1_11575" x1="236.249" y1="-129.766" x2="550.911" y2="160.639" gradientUnits="userSpaceOnUse">
<stop stop-color="#FE9535"/>
<stop offset="1" stop-color="#FFF9BE"/>
</linearGradient>
<linearGradient id="paint12_linear_1_11575" x1="66.4818" y1="153.62" x2="117.989" y2="5.68036" gradientUnits="userSpaceOnUse">
<stop/>
<stop offset="1" stop-color="#BDD7FF" stop-opacity="0.13"/>
</linearGradient>
<linearGradient id="paint13_linear_1_11575" x1="83.7432" y1="164.116" x2="135.881" y2="8.09754" gradientUnits="userSpaceOnUse">
<stop/>
<stop offset="1" stop-color="#BDD7FF" stop-opacity="0.13"/>
</linearGradient>
</defs>
</svg>
