<svg width="145" height="145" viewBox="0 0 145 145" fill="none" xmlns="http://www.w3.org/2000/svg">
<path d="M125.461 17.2769H19.5419C12.8266 17.2769 7.36389 22.7381 7.36389 29.4535V98.5545C7.36389 105.271 12.8266 110.733 19.5419 110.733H62.254L56.5897 122.062H47.0126C42.327 122.062 38.516 125.873 38.516 130.558C38.516 135.241 42.3273 139.052 47.0126 139.052H97.9903C102.673 139.052 106.484 135.241 106.484 130.558C106.484 125.873 102.673 122.062 97.9903 122.062H88.4104L82.7458 110.733H125.461C132.175 110.733 137.636 105.271 137.636 98.5545V29.4535C137.636 22.7381 132.175 17.2769 125.461 17.2769ZM19.5419 22.9398H125.461C129.052 22.9398 131.974 25.8624 131.974 29.4535V90.9097H61.4053C61.6296 90.2835 61.8355 89.6517 62.0176 89.0142L71.4168 86.9125C72.7116 86.6245 73.6312 85.4767 73.6312 84.1479V76.7118C73.6312 75.3859 72.7116 74.2378 71.4168 73.9501L62.0187 71.8484C61.3685 69.5746 60.4571 67.3772 59.298 65.2869L64.4605 57.1343C65.1685 56.0142 65.0065 54.5532 64.0682 53.6166L58.8157 48.3641C57.8791 47.4258 56.415 47.2638 55.2949 47.9747L47.148 53.1485C45.0817 51.9947 42.8855 51.0823 40.5836 50.4207L38.4848 41.0158C38.1942 39.721 37.0461 38.8014 35.7202 38.8014H28.2841C26.9582 38.8014 25.8089 39.721 25.5195 41.0158L23.4178 50.4207C21.1188 51.0823 18.9214 51.9947 16.8563 53.1485L13.0282 50.7183V29.4537C13.0282 25.8624 15.9509 22.9398 19.5419 22.9398ZM49.131 90.9097C49.6051 89.0734 49.8449 87.1805 49.8449 85.2453C49.8449 72.7513 39.6808 62.5885 27.1884 62.5885C21.9174 62.5885 16.9735 64.3645 13.0285 67.5352V57.4277L15.291 58.8635C16.2205 59.4532 17.4068 59.4518 18.3335 58.8607C20.7976 57.2867 23.5226 56.1524 26.4339 55.4923C27.5002 55.2499 28.3311 54.4147 28.5696 53.3484L30.5526 44.4652H33.4511L35.4356 53.3484C35.6726 54.415 36.5046 55.2499 37.5712 55.4923C40.4811 56.1524 43.2061 57.2864 45.6702 58.8607C46.5983 59.4518 47.7829 59.4532 48.7127 58.8635L56.4152 53.9735L58.4619 56.0202L53.5829 63.7244C52.999 64.6497 52.999 65.8289 53.5829 66.7527C55.1754 69.2704 56.3037 71.9926 56.9386 74.8504C57.1768 75.9223 58.0148 76.76 59.0867 76.9999L67.9671 78.9831V81.88L59.0867 83.8633C58.0148 84.1032 57.1768 84.9409 56.9386 86.0128C56.5676 87.6857 56.0176 89.3274 55.304 90.91L49.131 90.9097ZM13.0282 90.9097V75.8543C16.1908 71.0812 21.4292 68.2517 27.1881 68.2517C36.5579 68.2517 44.1803 75.8739 44.1803 85.2453C44.1803 87.2 43.8532 89.0986 43.21 90.9097H13.0282ZM100.82 130.558C100.82 132.119 99.5505 133.388 97.9903 133.388H47.0126C45.4496 133.388 44.1803 132.119 44.1803 130.558C44.1803 128.995 45.4496 127.726 47.0126 127.726C58.2428 127.726 87.8066 127.726 97.9903 127.726C99.5505 127.726 100.82 128.995 100.82 130.558ZM82.0771 122.062H62.9227L68.587 110.733H76.4153L82.0771 122.062ZM125.461 105.068C120.843 105.068 24.1768 105.068 19.5422 105.068C15.9512 105.068 13.0285 102.146 13.0285 98.5545V96.5743C17.1939 96.5743 128.036 96.5743 131.975 96.5743V98.5545C131.975 102.146 129.052 105.068 125.461 105.068Z" fill="#FFE662"/>
<path d="M103.823 58H84V63.6632H103.823V58Z" fill="#FFE662"/>
<path d="M114.981 48.9995H83.829V54.6627H114.981V48.9995Z" fill="#FFE662"/>
<path d="M123.478 51.2607H117.813V56.924H123.478V51.2607Z" fill="#FFE662"/>
<path d="M109.664 74.9995H104V80.6641H109.664V74.9995Z" fill="#FFE662"/>
<path d="M123.478 67H83.829V72.6643H123.478V67Z" fill="#FFE662"/>
<path d="M100.82 74.9995H83.829V80.6641H100.82V74.9995Z" fill="#FFE662"/>
<path d="M112.83 45.1635C113.935 46.2691 115.729 46.2691 116.836 45.1635L122.5 39.4988C123.606 38.3932 123.606 36.5988 122.5 35.4929L116.836 29.83C115.73 28.7227 113.936 28.7227 112.83 29.83C111.724 30.9356 111.724 32.7283 112.83 33.8342L116.491 37.4957L112.83 41.1576C111.723 42.2635 111.723 44.0576 112.83 45.1635Z" fill="#FFE662"/>
<path d="M90.4938 45.1635C91.5995 46.2691 93.3907 46.2691 94.4998 45.1635C95.6054 44.0576 95.6054 42.2635 94.4998 41.1576L90.8379 37.4957L94.4998 33.8342C95.6054 32.7283 95.6054 30.9356 94.4998 29.83C93.391 28.7227 91.5998 28.7227 90.4938 29.83L84.8292 35.4929C83.7236 36.5988 83.7236 38.3929 84.8292 39.4988L90.4938 45.1635Z" fill="#FFE662"/>
<path d="M100.835 45.993C101.873 45.993 102.874 45.4204 103.368 44.4275L109.032 33.0985C109.732 31.6992 109.165 29.9983 107.765 29.2988C106.366 28.6007 104.665 29.1676 103.966 30.5655L98.3039 41.8945C97.3535 43.7914 98.7525 45.993 100.835 45.993Z" fill="#FFE662"/>
</svg>
