<svg width="151" height="151" viewBox="0 0 151 151" fill="none" xmlns="http://www.w3.org/2000/svg">
<path fill-rule="evenodd" clip-rule="evenodd" d="M38.9675 48.7254L27.3694 38.4157C25.515 36.7681 24.4518 34.4003 24.4518 31.9181V31.6332C24.4518 29.494 25.2846 27.4835 26.7979 25.9703C28.1097 24.6584 29.8552 23.9362 31.7096 23.9362C33.564 23.9362 35.3095 24.6584 36.6214 25.9703L38.9674 28.3164L41.3135 25.9702C43.9372 23.3483 48.5133 23.3483 51.137 25.9702C52.6503 27.4835 53.4831 29.4939 53.4831 31.6332V31.9181C53.4831 34.3984 52.4199 36.7681 50.5655 38.4156L38.9675 48.7254ZM57.1119 31.9179V31.6331C57.1119 28.5249 55.9017 25.6036 53.7026 23.4045C51.7067 21.4067 49.0503 20.3072 46.2252 20.3072C43.5035 20.3072 40.9379 21.3287 38.9673 23.1904C36.9968 21.3287 34.4312 20.3072 31.7095 20.3072C28.8844 20.3072 26.228 21.4067 24.2321 23.4045C22.033 25.6036 20.8228 28.5249 20.8228 31.6331V31.9179C20.8228 35.4344 22.3306 38.7911 24.9579 41.1263L38.9674 53.5808L52.975 41.1281C55.6041 38.7929 57.112 35.4362 57.112 31.918L57.1119 31.9179Z" fill="white"/>
<path fill-rule="evenodd" clip-rule="evenodd" d="M146.129 80.3715C146.129 81.7159 145.036 82.807 143.694 82.807H115.763L103.849 97.1008C103.367 97.6756 102.29 97.2884 102.29 96.5382V82.807H70.6291C69.2871 82.807 68.1936 81.7159 68.1936 80.3715V68.1941H70.6291C74.6574 68.1941 77.9355 64.9159 77.9355 60.8876V24.3554H143.694C145.036 24.3554 146.129 25.4465 146.129 26.7908L146.129 80.3715ZM87.6775 129.081C87.6775 130.425 86.584 131.516 85.2421 131.516H53.5808V145.247C53.5808 146 52.5043 146.39 52.0221 145.81L40.1077 131.516H12.1775C10.8356 131.516 9.74207 130.425 9.74207 129.081V80.3709C9.74207 79.0265 10.8356 77.9354 12.1775 77.9354H36.2036L38.5392 80.7362C39.6352 82.0514 41.2451 82.8064 42.9572 82.8064C45.8262 82.8064 48.1911 80.6875 48.6197 77.9354H63.3227V80.3709C63.3227 84.3992 66.6009 87.6773 70.6292 87.6773H87.6776L87.6775 129.081ZM63.3226 73.0646H48.7097V68.1936H63.3226V73.0646ZM7.30637 63.3223C5.96441 63.3223 4.87089 62.2312 4.87089 60.8868V7.30616C4.87089 5.96178 5.96443 4.87069 7.30637 4.87069H70.629C71.9709 4.87069 73.0644 5.96178 73.0644 7.30616V60.8868C73.0644 62.2312 71.9709 63.3223 70.629 63.3223H43.8386V77.0536C43.8386 77.8061 42.7622 78.1958 42.2799 77.6161L30.3655 63.3223H7.30637ZM143.694 19.4839H77.9355V7.30645C77.9355 3.27815 74.6573 0 70.629 0H7.30645C3.27815 0 0 3.27815 0 7.30645V60.8871C0 64.9154 3.27815 68.1936 7.30645 68.1936H28.086L32.146 73.0645H12.1774C8.14913 73.0645 4.87097 76.3427 4.87097 80.371V129.081C4.87097 133.109 8.14913 136.387 12.1774 136.387H37.8279L48.281 148.93C49.377 150.245 50.9869 151 52.699 151C55.87 151 58.4516 148.418 58.4516 145.247V136.387H85.2419C89.2702 136.387 92.5484 133.109 92.5484 129.081V87.6774H97.4194V96.5377C97.4194 99.7087 100.001 102.29 103.172 102.29C104.884 102.29 106.494 101.535 107.59 100.22L118.043 87.6774H143.694C147.722 87.6774 151 84.3992 151 80.371V26.7903C151 22.762 147.722 19.4839 143.694 19.4839Z" fill="#FFE662"/>
<path fill-rule="evenodd" clip-rule="evenodd" d="M66.4166 103.656C66.4166 105.609 64.8283 107.198 62.8752 107.198C60.9221 107.198 59.3337 105.609 59.3337 103.656C59.3337 101.703 60.922 100.115 62.8752 100.115C64.8283 100.115 66.4166 101.703 66.4166 103.656ZM45.1681 100.115C45.1681 98.1617 46.7564 96.5734 48.7095 96.5734C50.6626 96.5734 52.251 98.1617 52.251 100.115C52.251 102.068 50.6626 103.656 48.7095 103.656C46.7564 103.656 45.1681 102.068 45.1681 100.115ZM31.0021 103.656C31.0021 101.703 32.5905 100.115 34.5436 100.115C36.4967 100.115 38.085 101.703 38.085 103.656C38.085 105.609 36.4967 107.198 34.5436 107.198C32.5905 107.198 31.0021 105.609 31.0021 103.656ZM55.7924 103.656C55.7924 104.706 56.0368 105.694 56.4476 106.59C55.6844 105.914 54.8345 105.337 53.9155 104.878C55.07 103.617 55.7924 101.955 55.7924 100.115C55.7924 96.2085 52.6158 93.0319 48.7096 93.0319C44.8034 93.0319 41.6267 96.2085 41.6267 100.115C41.6267 101.955 42.3491 103.617 43.5036 104.878C42.5846 105.337 41.7347 105.914 40.9715 106.59C41.3823 105.694 41.6266 104.706 41.6266 103.656C41.6266 99.75 38.45 96.5733 34.5438 96.5733C30.6375 96.5733 27.4609 99.75 27.4609 103.656C27.4609 105.544 28.2134 107.249 29.4211 108.52C26.1452 110.332 23.9194 113.82 23.9194 117.822V121.363H27.4609V117.822C27.4609 113.916 30.6375 110.739 34.5438 110.739C35.6593 110.739 36.7288 111.005 37.7027 111.492C37.423 112.301 37.2176 113.147 37.1184 114.031L36.3251 121.167L39.8435 121.558L40.6368 114.422C41.0954 110.303 44.566 107.198 48.7095 107.198C52.853 107.198 56.3236 110.303 56.7823 114.422L57.5755 121.558L61.094 121.167L60.3007 114.031C60.2033 113.147 59.9961 112.301 59.7164 111.492C60.6903 111.005 61.7598 110.739 62.8753 110.739C66.7816 110.739 69.9582 113.916 69.9582 117.822V121.363H73.4997V117.822C73.4997 113.82 71.2739 110.332 67.998 108.52C69.2057 107.249 69.9582 105.544 69.9582 103.656C69.9582 99.7499 66.7816 96.5733 62.8753 96.5733C58.9691 96.5733 55.7924 99.7499 55.7924 103.656V103.656Z" fill="white"/>
<path fill-rule="evenodd" clip-rule="evenodd" d="M124.57 63.5629C124.57 65.3979 123.078 66.8902 121.242 66.8902H113.931C110.628 66.8902 107.426 65.9902 104.606 64.2982V50.9422L106.096 49.4516C108.281 47.2672 109.833 44.5271 110.582 41.5308C110.766 40.7905 111.43 40.2714 112.195 40.2714C113.132 40.2714 114.017 40.6807 114.623 41.3977C115.228 42.1131 115.488 43.0531 115.333 43.9781L114.288 50.2535H121.242C123.078 50.2535 124.57 51.7458 124.57 53.5808V63.5629ZM94.6236 66.8897V50.253H101.278L101.28 66.8897H94.6236ZM121.243 46.9251H118.215L118.616 44.5228C118.93 42.6312 118.401 40.708 117.162 39.2456C115.922 37.7816 114.112 36.9431 112.195 36.9431C109.901 36.9431 107.91 38.4986 107.353 40.723C106.75 43.1353 105.503 45.338 103.744 47.0982L103.253 47.589C102.699 47.178 102.02 46.9251 101.278 46.9251H94.6237C92.7887 46.9251 91.2964 48.4175 91.2964 50.2525V66.8892C91.2964 68.7243 92.7887 70.2166 94.6237 70.2166H101.278C102.731 70.2166 103.954 69.2766 104.408 67.9773C107.359 69.4413 110.602 70.2166 113.931 70.2166H121.243C124.913 70.2166 127.897 67.232 127.897 63.5619V53.5798C127.897 49.9098 124.913 46.9251 121.243 46.9251L121.243 46.9251Z" fill="white"/>
</svg>
